<svg xmlns="http://www.w3.org/2000/svg" version="1.1" viewBox="-5.0 -10.0 110.0 135.0">
 <path d="m64.918 5.5469h-45.398v37.859h5.9531v-31.723h39.445zm-45.473 39.684h19.742c2.0273-0.03125 3.9023 1.082 4.8516 2.875l4.5273 8.2578h-0.003906c0.95312 1.793 2.8242 2.9023 4.8516 2.8711h27.156c3.0508 0.011719 5.5195 2.4844 5.5234 5.5352v24.152c-0.003906 3.0547-2.4766 5.5273-5.5312 5.5312h-61.121c-3.0508-0.003906-5.5273-2.4766-5.5352-5.5312v-38.156c0.007812-3.0547 2.4805-5.5312 5.5352-5.5391zm52.301 6.6797c0.69141 0 1.2539 0.5625 1.2539 1.2539 0 0.69141-0.5625 1.2539-1.2539 1.2539h-19.27c-0.69531 0-1.2578-0.5625-1.2578-1.2539 0-0.69141 0.5625-1.2539 1.2578-1.2539zm0-6.0742v-0.003907c0.69141 0 1.2539 0.5625 1.2539 1.2578 0 0.69141-0.5625 1.2539-1.2539 1.2539h-19.27c-0.69531 0-1.2578-0.5625-1.2578-1.2539 0-0.69531 0.5625-1.2578 1.2578-1.2578zm-1.0508-14.547-25.809-0.003906v8.1445h25.809zm-27.062-2.5156h28.316c0.69141 0 1.2539 0.5625 1.2539 1.2539v10.656c0 0.33203-0.12891 0.65234-0.36719 0.88672-0.23438 0.23828-0.55469 0.37109-0.88672 0.36719h-28.316c-0.33203 0.003906-0.65234-0.12891-0.88672-0.36719-0.23438-0.23437-0.36719-0.55469-0.36719-0.88672v-10.656c0.003906-0.69141 0.5625-1.25 1.2539-1.2539zm36.852-7.3008h-45.395v21.934h4.0977c2.6953-0.027344 5.1836 1.4453 6.457 3.8203l4.5156 8.2617h0.003906c0.62891 1.2031 1.8867 1.9492 3.2461 1.9219h27.074zm-7.7891-7.9609h-45.391v29.895h5.957v-23.766h39.441z" fill-rule="evenodd"/>
<text x="0.0" y="117.5" font-size="5.0" font-weight="bold" font-family="Arbeit Regular, Helvetica, Arial-Unicode, Arial, Sans-serif" fill="#000000">Created by feri ulan taufiq</text><text x="0.0" y="122.5" font-size="5.0" font-weight="bold" font-family="Arbeit Regular, Helvetica, Arial-Unicode, Arial, Sans-serif" fill="#000000">from Noun Project</text></svg>