<svg xmlns="http://www.w3.org/2000/svg" data-name="Layer 1" viewBox="0 0 128 160" x="0px" y="0px"><title>Business Essentials solid</title><path d="M94.91852,37.0094l20.49756,4.625a2.02733,2.02733,0,0,0,.44244.04932,2.00038,2.00038,0,0,0,.43842-3.95166l-20.4975-4.625a2.00027,2.00027,0,1,0-.88092,3.90234Z"/><path d="M91.17236,44.23254a2.00066,2.00066,0,0,0,1.5108,2.3916l20.49652,4.625a2.0272,2.0272,0,0,0,.44238.04932,2.00038,2.00038,0,0,0,.43848-3.95166L93.564,42.7218A2.00082,2.00082,0,0,0,91.17236,44.23254Z"/><path d="M88.936,53.84729a2.00061,2.00061,0,0,0,1.5108,2.3916l20.49756,4.625a2.02707,2.02707,0,0,0,.44232.04932,2.00038,2.00038,0,0,0,.43848-3.95166l-20.4975-4.625A2.00382,2.00382,0,0,0,88.936,53.84729Z"/><path d="M86.70062,63.462a2.00061,2.00061,0,0,0,1.5108,2.3916l20.49744,4.625a2.02774,2.02774,0,0,0,.44244.04932,2.00038,2.00038,0,0,0,.43848-3.95166l-20.49756-4.625A2.00243,2.00243,0,0,0,86.70062,63.462Z"/><path d="M87.65259,90.01416l13.73779,3.09973a2.0272,2.0272,0,0,0,.44238.04932,2.00038,2.00038,0,0,0,.43848-3.95166L81.91632,84.61877l3.52252,2.46582A5.99887,5.99887,0,0,1,87.65259,90.01416Z"/><path d="M100.03583,98.82629,87.99847,96.11023v4.10114L99.155,102.72864a2.0272,2.0272,0,0,0,.44238.04932,2.00038,2.00038,0,0,0,.43848-3.95166Z"/><path d="M77.99829,77.71631l25.62842,5.78235a2.02816,2.02816,0,0,0,.44244.04932,2.00038,2.00038,0,0,0,.43848-3.95166L77.99829,73.61523Z"/><path d="M74.20325,22.16272a9.052,9.052,0,0,0-5.13885.34058,7.9544,7.9544,0,0,1,.93372,3.71313v.23737a4.98909,4.98909,0,0,1,3.32428-.38873A4.96934,4.96934,0,0,1,76.467,28.27844a4.78679,4.78679,0,0,1,.61523,3.6543,4.98343,4.98343,0,0,1-4.76764,3.798l1.73438.63068A5.98349,5.98349,0,0,1,76.832,38.46558,8.88079,8.88079,0,0,0,80.97876,32.839a8.76389,8.76389,0,0,0-1.123-6.686A8.94447,8.94447,0,0,0,74.20325,22.16272Z"/><path d="M77.99829,45.30286V49.599A4.91567,4.91567,0,0,1,79.843,51.30042a4.79655,4.79655,0,0,1,.61621,3.66016l-2.45508,10.561-.00586-.00134V69.621l1.06348.23993a1.99914,1.99914,0,0,0,2.38873-1.498l2.90527-12.49658a8.76878,8.76878,0,0,0-1.124-6.69141A8.916,8.916,0,0,0,77.99829,45.30286Z"/><path d="M2.62012,106.54l58.002,21.22a4.03259,4.03259,0,0,0,3.67017-.48,3.95787,3.95787,0,0,0,1.7-3.12l.01-97.94A4.00625,4.00625,0,0,0,63.37225,22.46L12.91046,4H77.57275v7.83H88.00311v5.32l-31.05109-7a5.9699,5.9699,0,0,0-6.73022,3.24l3.81012,1.39a2.01883,2.01883,0,0,1,1.59-.78,2.29932,2.29932,0,0,1,.45.05l66.37238,14.98a1.96128,1.96128,0,0,1,1.50006,2.36L104.27368,116,87.9931,112.33a5.954,5.954,0,0,1-1.47,3.77l16.87061,3.8a3.833,3.833,0,0,0,.88.1,4.012,4.012,0,0,0,3.90015-3.09L127.84454,32.3a5.99348,5.99348,0,0,0-4.5202-7.18L92.00323,18.06V11.83a4.00535,4.00535,0,0,0-4.00012-4H81.57288V4a3.99894,3.99894,0,0,0-4.00012-4H4.00012A3.999,3.999,0,0,0,0,4l.04.44A3.51333,3.51333,0,0,0,0,5v97.78A4.01138,4.01138,0,0,0,2.62012,106.54Z"/><path d="M72.00256,122a1.99508,1.99508,0,0,0,1.1-.33,2.0206,2.0206,0,0,0,.9-1.67v-5.83h8.00024a2.00594,2.00594,0,0,0,2.00012-2V92a2.00691,2.00691,0,0,0-.86-1.64l-9.14032-6.4V42a2.00774,2.00774,0,0,0-1.32007-1.88l-2.69012-.98V121.33l1.2301.52A2.08072,2.08072,0,0,0,72.00256,122Z"/><text x="0" y="143" fill="#000000" font-size="5px" font-weight="bold" font-family="'Helvetica Neue', Helvetica, Arial-Unicode, Arial, Sans-serif">Created by WEBTECHOPS LLP</text><text x="0" y="148" fill="#000000" font-size="5px" font-weight="bold" font-family="'Helvetica Neue', Helvetica, Arial-Unicode, Arial, Sans-serif">from the Noun Project</text></svg>